<svg version="1.1" viewBox="0.0 0.0 787.501312335958 154.35695538057743" fill="none" stroke="none" stroke-linecap="square" stroke-miterlimit="10" xmlns:xlink="http://www.w3.org/1999/xlink" xmlns="http://www.w3.org/2000/svg"><clipPath id="p.0"><path d="m0 0l787.50134 0l0 154.35695l-787.50134 0l0 -154.35695z" clip-rule="nonzero"/></clipPath><g clip-path="url(#p.0)"><path fill="#000000" fill-opacity="0.0" d="m0 0l787.50134 0l0 154.35695l-787.50134 0z" fill-rule="evenodd"/><path fill="#000000" fill-opacity="0.0" d="m56.512493 65.6416l692.5039 0" fill-rule="evenodd"/><path stroke="#000000" stroke-width="8.0" stroke-linejoin="round" stroke-linecap="butt" d="m56.512493 65.6416l644.5039 0" fill-rule="evenodd"/><path fill="#000000" stroke="#000000" stroke-width="8.0" stroke-linecap="butt" d="m701.0164 78.85546l36.30475 -13.21386l-36.30475 -13.213863z" fill-rule="evenodd"/><path fill="#000000" fill-opacity="0.0" d="m56.512493 40.16368l0 50.960632" fill-rule="evenodd"/><path stroke="#000000" stroke-width="4.0" stroke-linejoin="round" stroke-linecap="butt" d="m56.512493 40.16368l0 50.960632" fill-rule="evenodd"/><path fill="#000000" fill-opacity="0.0" d="m117.428955 88.45915l79.18111 0l0 40.944885l-79.18111 0z" fill-rule="evenodd"/><path fill="#0000ff" d="m145.207 97.59353q-0.515625 0.90625 -1.28125 1.5l-0.390625 -0.484375q1.125 -0.828125 1.53125 -2.390625l0.640625 0.171875q0.109375 0.109375 -0.09375 0.140625l-0.21875 0.546875l3.859375 0l0 0.515625l-2.0 0l0 0.921875l1.640625 0l0 0.53125l-1.640625 0l0 1.21875l2.296875 0l0 0.53125l-2.296875 0l0 1.640625l-0.546875 0l0 -1.640625l-3.140625 0l0 -0.53125l1.234375 0l0 -1.75l1.90625 0l0 -0.921875l-1.5 0zm0.140625 2.671875l1.359375 0l0 -1.21875l-1.359375 0l0 1.21875zm9.4375 -2.125q-0.640625 -0.390625 -1.296875 -1.375q-0.5625 0.9375 -1.171875 1.375l2.46875 0zm-1.5625 3.53125l0 -1.78125l-2.296875 0l0 -0.515625l2.296875 0l0 -0.71875l-1.0625 0l0 -0.375q-0.65625 0.515625 -1.5625 0.8125l-0.28125 -0.59375q2.109375 -0.6875 2.875 -2.328125l0.6875 0.078125q0.140625 0.03125 -0.03125 0.171875q0.9375 1.3125 2.796875 1.875l-0.3125 0.640625q-0.78125 -0.28125 -1.46875 -0.75l0 0.46875l-1.09375 0l0 0.71875l2.328125 0l0 0.515625l-2.328125 0l0 1.78125l2.546875 0l0 0.515625l-5.5625 0l0 -0.515625l2.46875 0zm-1.09375 -0.140625q-0.28125 -0.625 -0.546875 -1.0625l0.546875 -0.28125q0.296875 0.4375 0.546875 1.046875l-0.546875 0.296875zm2.21875 -0.25q0.234375 -0.484375 0.453125 -1.203125l0.53125 0.171875q0.34375 0.078125 0.046875 0.1875q-0.1875 0.515625 -0.46875 1.03125l-0.5625 -0.1875zm4.8125 -1.421875q-0.3125 -0.328125 -0.421875 -0.4375l0 3.0625l-0.453125 0l0 -2.984375q-0.25 0.765625 -0.6875 1.296875l-0.328125 -0.53125q0.625 -0.890625 0.984375 -2.203125l-0.765625 0l0 -0.53125l0.796875 0l0 -1.3125l0.4375 0q0.21875 0.03125 0.015625 0.171875l0 1.140625l0.640625 0l0 0.53125l-0.640625 0l0 0.765625q0.5 0.265625 0.71875 0.546875l-0.296875 0.484375zm2.515625 -1.453125q0 0.65625 0.046875 1.234375l0.734375 0q-0.046875 -0.21875 -0.1875 -0.40625l0.515625 -0.140625q0.203125 0.28125 0.28125 0.546875l0.578125 0l0 0.4375l-1.890625 0q0.078125 0.546875 0.265625 0.953125q0.359375 -0.328125 0.65625 -0.84375l0.46875 0.25q0.171875 0.109375 -0.078125 0.15625q-0.359375 0.546875 -0.6875 0.859375q0.390625 0.375 0.625 0.375q0.171875 0 0.25 -0.578125l0.46875 0.28125q-0.078125 0.65625 -0.390625 0.84375q-0.453125 0.3125 -1.359375 -0.59375q-0.578125 0.4375 -1.375 0.6875l-0.234375 -0.53125q0.703125 -0.1875 1.28125 -0.59375q-0.296875 -0.609375 -0.359375 -1.265625l-1.015625 0l0 0.40625q0.5 0.171875 0.9375 0.5l-0.328125 0.484375q-0.21875 -0.1875 -0.609375 -0.453125q-0.125 0.921875 -0.875 1.46875l-0.4375 -0.4375q0.796875 -0.46875 0.765625 -1.5l0 -0.46875l-0.296875 0l0 -0.4375l1.828125 0q-0.015625 -0.265625 -0.015625 -0.46875l-0.390625 0.140625l-0.046875 -0.265625l-1.125 0.15625q-0.0625 0.1875 -0.109375 0.078125l-0.171875 -0.515625l0.28125 0l0.328125 -0.578125l-0.578125 -0.40625l0.21875 -0.359375l0.078125 0.0625l0.53125 -1.125l0.40625 0.28125q0.109375 0.109375 -0.0625 0.109375l-0.5625 0.921875l0.1875 0.140625l0.4375 -0.734375l0.359375 0.234375q0.109375 0.109375 -0.0625 0.109375l-0.84375 1.3125l0.578125 -0.046875l-0.171875 -0.4375l0.328125 -0.140625q0.21875 0.328125 0.359375 0.875l0 -2.703125l0.4375 0q0.21875 0.03125 0.03125 0.15625l0 1.96875zm1.5 0.4375l-1.125 0.21875q-0.046875 0.203125 -0.109375 0.09375l-0.15625 -0.5l0.234375 -0.03125l0.328125 -0.484375l-0.65625 -0.5l0.21875 -0.328125l0.109375 0.09375l0.546875 -1.046875l0.390625 0.25q0.109375 0.109375 -0.0625 0.109375l-0.546875 0.84375l0.25 0.171875l0.4375 -0.6875l0.359375 0.1875q0.109375 0.109375 -0.0625 0.109375l-0.875 1.265625l0.609375 -0.09375l-0.171875 -0.375l0.359375 -0.078125q0.28125 0.40625 0.40625 0.953125l-0.40625 0.140625l-0.078125 -0.3125zm1.09375 1.421875q0.765625 -1.109375 1.015625 -2.234375l-0.828125 0l0 -0.515625l0.84375 0l0 -1.3125l0.53125 0q0.21875 0.015625 0.015625 0.15625l0 1.15625l0.765625 0l0 0.515625l-0.765625 0l0 0.875q0.5 0.296875 0.90625 0.65625l-0.296875 0.546875q-0.390625 -0.390625 -0.609375 -0.578125l0 3.015625l-0.546875 0l0 -3.0625q-0.15625 0.5625 -0.65625 1.25l-0.375 -0.46875zm3.21875 2.25l-0.453125 0l0 -1.203125l-0.578125 0l0 -0.4375l0.578125 0l0 -1.640625l1.28125 0l0 -0.328125l-1.890625 0l0 -0.4375l1.171875 0l0 -0.40625l-0.703125 0l0 -0.4375l0.703125 0l0 -0.359375l-0.984375 0l0 -0.4375l0.984375 0l0 -0.65625l0.4375 0q0.21875 0.03125 0.03125 0.15625l0 0.5l0.90625 0l0 -0.65625l0.4375 0q0.21875 0.03125 0.03125 0.15625l0 0.5l1.03125 0l0 0.4375l-1.03125 0l0 0.359375l0.734375 0l0 0.4375l-0.734375 0l0 0.40625l1.203125 0l0 0.4375l-1.859375 0l0 0.328125l1.3125 0l0 1.640625l0.5625 0l0 0.4375l-0.5625 0l0 0.765625q0 0.359375 -0.328125 0.359375l-0.53125 0l-0.046875 -0.515625l0.359375 0q0.078125 0 0.078125 -0.125l0 -0.484375l-2.140625 0l0 1.203125zm0.578125 -4.890625l0.90625 0l0 -0.359375l-0.90625 0l0 0.359375zm0 0.84375l0.90625 0l0 -0.40625l-0.90625 0l0 0.40625zm0.71875 1.578125l0.84375 0l0 -0.375l-0.84375 0l0 0.375zm-1.296875 0l0.828125 0l0 -0.375l-0.828125 0l0 0.375zm0 0.828125l0.828125 0l0 -0.390625l-0.828125 0l0 0.390625zm1.296875 0l0.84375 0l0 -0.390625l-0.84375 0l0 0.390625z" fill-rule="nonzero"/><path fill="#000000" d="m146.30075 113.726654q-0.765625 2.109375 -2.109375 4.40625q0.171875 0.40625 -0.125 0.34375l-1.34375 -0.9375q1.53125 -2.171875 2.40625 -4.390625l1.171875 0.578125zm4.625 -4.6875l0 2.75l2.171875 0l0 -2.75l-2.171875 0zm4.859375 9.609375q-3.75 -1.875 -5.09375 -4.921875q-0.40625 2.984375 -4.625 5.21875l-0.640625 -1.40625q3.796875 -1.875 4.15625 -4.625l-3.453125 0l0 -1.125l3.625 0l0 -2.75l-2.40625 0l0 -1.109375l2.40625 0l0 -2.40625l1.109375 0q0.46875 0.0625 0.0625 0.359375l0 2.046875l3.34375 0l0 3.859375l1.703125 0l0 1.125l-4.453125 0q1.28125 2.6875 4.796875 4.21875l-0.53125 1.515625zm-10.71875 -6.5625q-1.0 -1.046875 -2.046875 -1.578125l0.875 -1.234375q1.0625 0.40625 2.171875 1.578125l-1.0 1.234375zm0.828125 -3.28125q-1.0625 -1.109375 -2.0625 -1.703125l0.9375 -1.109375q1.125 0.53125 2.109375 1.578125l-0.984375 1.234375zm12.125 9.03125q2.875 -1.765625 2.8125 -5.625l1.34375 0.234375q0.171875 0.171875 -0.109375 0.34375l-0.296875 2.109375q0.875 1.0625 2.28125 1.8125l0 -5.671875l-3.984375 0l0 -1.125l8.84375 0l0 1.125l-3.6875 0l0 2.15625l4.109375 0l0 1.125l-4.109375 0l0 2.8125q0.875 0.234375 1.765625 0.234375l3.859375 0l-0.234375 1.109375l-3.625 0q-3.40625 0 -5.578125 -2.46875q-0.875 1.9375 -2.453125 2.9375l-0.9375 -1.109375zm7.140625 -10.734375l5.390625 0l0 3.109375l-1.171875 0l0 -1.984375l-9.71875 0l0 2.109375l-1.171875 0l0 -3.234375l5.328125 0l0 -1.6875l1.296875 0q0.578125 0.109375 0.046875 0.46875l0 1.21875z" fill-rule="nonzero"/><path fill="#000000" fill-opacity="0.0" d="m157.0148 40.16368l0 50.960632" fill-rule="evenodd"/><path stroke="#000000" stroke-width="4.0" stroke-linejoin="round" stroke-linecap="butt" d="m157.0148 40.16368l0 50.960632" fill-rule="evenodd"/><path fill="#000000" fill-opacity="0.0" d="m16.926653 88.45915l79.18111 0l0 40.944885l-79.18111 0z" fill-rule="evenodd"/><path fill="#000000" d="m51.84533 99.81228l0.515625 0q0.21875 0.015625 0.03125 0.15625l0 0.296875l1.390625 0l0 -0.453125l0.515625 0q0.21875 0.015625 0.03125 0.15625l0 0.296875l1.8125 0l0 0.53125l-1.8125 0l0 1.640625l-0.546875 0l0 -1.640625l-1.390625 0q-0.03125 1.359375 -1.9375 1.640625l-0.140625 -0.546875q1.5625 -0.21875 1.53125 -1.09375l-1.96875 0l0 -0.53125l1.96875 0l0 -0.453125zm1.28125 -0.578125q0 0.40625 -0.359375 0.40625l-0.34375 0l-0.09375 -0.4375l0.25 0q0.078125 0 0.078125 -0.078125l0 -1.390625l-0.765625 0l0 1.828125l-0.453125 0l0 -1.828125l-0.765625 0l0 1.9375l-0.46875 0l0 -2.375l0.546875 0q-0.1875 -0.328125 -0.5 -0.640625l0.4375 -0.328125q0.328125 0.3125 0.546875 0.6875l-0.375 0.28125l0.578125 0l0 -1.125l0.4375 0q0.21875 0.03125 0.015625 0.15625l0 0.96875l0.578125 0l-0.328125 -0.21875l0.4375 -0.796875l0.46875 0.265625q0.15625 0.109375 -0.0625 0.140625l-0.40625 0.609375l0.546875 0l0 1.9375zm1.5625 -0.140625q-0.578125 0.46875 -1.203125 0.6875l-0.21875 -0.5q0.625 -0.15625 1.0625 -0.546875q-0.296875 -0.4375 -0.4375 -0.765625q-0.109375 0.203125 -0.328125 0.46875l-0.359375 -0.40625q0.65625 -0.71875 0.9375 -1.8125l0.46875 0.140625q0.15625 0.078125 -0.0625 0.140625q-0.046875 0.265625 -0.15625 0.484375l1.640625 0l0 0.4375l-0.46875 0q-0.078125 0.6875 -0.546875 1.296875q0.265625 0.234375 1.125 0.453125l-0.203125 0.546875q-0.734375 -0.1875 -1.25 -0.625zm-3.359375 -1.09375q0.125 0.0625 0 0.109375q-0.03125 0.578125 -0.203125 1.171875l-0.34375 -0.15625q0.21875 -0.65625 0.21875 -1.171875l0.328125 0.046875zm3.328125 0.40625q0.328125 -0.34375 0.4375 -0.984375l-0.921875 0q0.109375 0.609375 0.484375 0.984375zm-2.4375 0.609375q0 -0.5 -0.21875 -1.015625l0.359375 -0.109375q0.1875 0.40625 0.21875 1.015625l-0.359375 0.109375zm8.484375 -2.21875q1.203125 -0.1875 1.796875 -0.46875l0.3125 0.53125q0.109375 0.234375 -0.171875 0.109375q-1.015625 0.21875 -1.90625 0.296875l0 1.140625l2.40625 0l0 0.53125l-0.90625 0l0 3.4375l-0.546875 0l0 -3.4375l-0.953125 0l0 0.84375q0 1.796875 -1.3125 2.6875l-0.421875 -0.5q1.1875 -0.71875 1.1875 -2.25l0 -3.109375l0.515625 0.1875zm-1.046875 0.984375l0 2.375l-0.546875 0l0 -0.265625l-1.21875 0l0 0.765625q0 1.03125 -0.4375 1.75l-0.5 -0.375q0.390625 -0.5625 0.390625 -1.40625l0 -2.84375l2.3125 0zm-0.546875 1.59375l0 -1.078125l-1.21875 0l0 1.078125l1.21875 0zm-1.984375 -2.328125l0 -0.515625l2.734375 0l0 0.515625l-2.734375 0z" fill-rule="nonzero"/><path fill="#000000" d="m44.97033 108.695404l0 1.921875l3.40625 0l0 -1.921875l-3.40625 0zm0 5.03125l3.40625 0l0 -1.984375l-3.40625 0l0 1.984375zm4.578125 0l3.453125 0l0 -1.984375l-3.453125 0l0 1.984375zm0 -3.109375l3.453125 0l0 -1.921875l-3.453125 0l0 1.921875zm-1.171875 -3.046875l0 -2.21875l1.109375 0q0.59375 0.109375 0.0625 0.46875l0 1.75l4.796875 0l0 7.796875l-1.34375 0l0 -0.53125l-3.453125 0l0 4.0l-1.171875 0l0 -4.0l-3.40625 0l0 0.9375l-1.34375 0l0 -8.203125l4.75 0zm21.203125 10.375q0 0.765625 -0.75 0.765625l-1.125 0l-0.234375 -0.9375l0.890625 0q0.234375 0 0.234375 -0.234375l0 -1.171875l-4.109375 0l0 2.34375l-1.0 0l0 -6.796875l6.09375 0l0 6.03125zm-7.96875 -12.1875l0 1.109375l-3.5625 0l0 -1.109375l3.5625 0zm-4.265625 3.109375l0 -1.109375l4.96875 0l0 1.109375l-4.96875 0zm4.265625 1.0l0 1.109375l-3.5625 0l0 -1.109375l3.5625 0zm0 2.109375l0 1.109375l-3.5625 0l0 -1.109375l3.5625 0zm0.296875 2.109375l0 4.515625l-1.0 0l0 -0.46875l-2.109375 0l0 0.703125l-0.984375 0l0 -4.75l4.09375 0zm-1.0 0.9375l-2.109375 0l0 2.15625l2.109375 0l0 -2.15625zm7.6875 -0.421875l-4.109375 0l0 0.828125l4.109375 0l0 -0.828125zm0.9375 -6.203125l0 0.9375l-2.640625 0l0 0.9375l3.8125 0l0 0.9375l-8.328125 0l0 -0.9375l3.515625 0l0 -0.9375l-2.578125 0l0 -0.9375l2.578125 0l0 -0.9375l-3.109375 0l0 -0.9375l3.109375 0l0 -1.234375l0.9375 0q0.46875 0.0625 0.0625 0.359375l0 0.875l3.34375 0l0 0.9375l-3.34375 0l0 0.9375l2.640625 0zm-0.9375 4.453125l-4.109375 0l0 0.8125l4.109375 0l0 -0.8125z" fill-rule="nonzero"/><path fill="#000000" fill-opacity="0.0" d="m340.26566 40.16368l0 50.960632" fill-rule="evenodd"/><path stroke="#000000" stroke-width="4.0" stroke-linejoin="round" stroke-linecap="butt" d="m340.26566 40.16368l0 50.960632" fill-rule="evenodd"/><path fill="#000000" fill-opacity="0.0" d="m266.32742 88.45915l147.87402 0l0 40.944885l-147.87402 0z" fill-rule="evenodd"/><path fill="#0000ff" d="m328.45193 97.59353q-0.515625 0.90625 -1.28125 1.5l-0.390625 -0.484375q1.125 -0.828125 1.53125 -2.390625l0.640625 0.171875q0.109375 0.109375 -0.09375 0.140625l-0.21875 0.546875l3.859375 0l0 0.515625l-2.0 0l0 0.921875l1.640625 0l0 0.53125l-1.640625 0l0 1.21875l2.296875 0l0 0.53125l-2.296875 0l0 1.640625l-0.546875 0l0 -1.640625l-3.140625 0l0 -0.53125l1.234375 0l0 -1.75l1.90625 0l0 -0.921875l-1.5 0zm0.140625 2.671875l1.359375 0l0 -1.21875l-1.359375 0l0 1.21875zm9.4375 -2.125q-0.640625 -0.390625 -1.296875 -1.375q-0.5625 0.9375 -1.171875 1.375l2.46875 0zm-1.5625 3.53125l0 -1.78125l-2.296875 0l0 -0.515625l2.296875 0l0 -0.71875l-1.0625 0l0 -0.375q-0.65625 0.515625 -1.5625 0.8125l-0.28125 -0.59375q2.109375 -0.6875 2.875 -2.328125l0.6875 0.078125q0.140625 0.03125 -0.03125 0.171875q0.9375 1.3125 2.796875 1.875l-0.3125 0.640625q-0.78125 -0.28125 -1.46875 -0.75l0 0.46875l-1.09375 0l0 0.71875l2.328125 0l0 0.515625l-2.328125 0l0 1.78125l2.546875 0l0 0.515625l-5.5625 0l0 -0.515625l2.46875 0zm-1.09375 -0.140625q-0.28125 -0.625 -0.546875 -1.0625l0.546875 -0.28125q0.296875 0.4375 0.546875 1.046875l-0.546875 0.296875zm2.21875 -0.25q0.234375 -0.484375 0.453125 -1.203125l0.53125 0.171875q0.34375 0.078125 0.046875 0.1875q-0.1875 0.515625 -0.46875 1.03125l-0.5625 -0.1875zm4.8125 -1.421875q-0.3125 -0.328125 -0.421875 -0.4375l0 3.0625l-0.453125 0l0 -2.984375q-0.25 0.765625 -0.6875 1.296875l-0.328125 -0.53125q0.625 -0.890625 0.984375 -2.203125l-0.765625 0l0 -0.53125l0.796875 0l0 -1.3125l0.4375 0q0.21875 0.03125 0.015625 0.171875l0 1.140625l0.640625 0l0 0.53125l-0.640625 0l0 0.765625q0.5 0.265625 0.71875 0.546875l-0.296875 0.484375zm2.515625 -1.453125q0 0.65625 0.046875 1.234375l0.734375 0q-0.046875 -0.21875 -0.1875 -0.40625l0.515625 -0.140625q0.203125 0.28125 0.28125 0.546875l0.578125 0l0 0.4375l-1.890625 0q0.078125 0.546875 0.265625 0.953125q0.359375 -0.328125 0.65625 -0.84375l0.46875 0.25q0.171875 0.109375 -0.078125 0.15625q-0.359375 0.546875 -0.6875 0.859375q0.390625 0.375 0.625 0.375q0.171875 0 0.25 -0.578125l0.46875 0.28125q-0.078125 0.65625 -0.390625 0.84375q-0.453125 0.3125 -1.359375 -0.59375q-0.578125 0.4375 -1.375 0.6875l-0.234375 -0.53125q0.703125 -0.1875 1.28125 -0.59375q-0.296875 -0.609375 -0.359375 -1.265625l-1.015625 0l0 0.40625q0.5 0.171875 0.9375 0.5l-0.328125 0.484375q-0.21875 -0.1875 -0.609375 -0.453125q-0.125 0.921875 -0.875 1.46875l-0.4375 -0.4375q0.796875 -0.46875 0.765625 -1.5l0 -0.46875l-0.296875 0l0 -0.4375l1.828125 0q-0.015625 -0.265625 -0.015625 -0.46875l-0.390625 0.140625l-0.046875 -0.265625l-1.125 0.15625q-0.0625 0.1875 -0.109375 0.078125l-0.171875 -0.515625l0.28125 0l0.328125 -0.578125l-0.578125 -0.40625l0.21875 -0.359375l0.078125 0.0625l0.53125 -1.125l0.40625 0.28125q0.109375 0.109375 -0.0625 0.109375l-0.5625 0.921875l0.1875 0.140625l0.4375 -0.734375l0.359375 0.234375q0.109375 0.109375 -0.0625 0.109375l-0.84375 1.3125l0.578125 -0.046875l-0.171875 -0.4375l0.328125 -0.140625q0.21875 0.328125 0.359375 0.875l0 -2.703125l0.4375 0q0.21875 0.03125 0.03125 0.15625l0 1.96875zm1.5 0.4375l-1.125 0.21875q-0.046875 0.203125 -0.109375 0.09375l-0.15625 -0.5l0.234375 -0.03125l0.328125 -0.484375l-0.65625 -0.5l0.21875 -0.328125l0.109375 0.09375l0.546875 -1.046875l0.390625 0.25q0.109375 0.109375 -0.0625 0.109375l-0.546875 0.84375l0.25 0.171875l0.4375 -0.6875l0.359375 0.1875q0.109375 0.109375 -0.0625 0.109375l-0.875 1.265625l0.609375 -0.09375l-0.171875 -0.375l0.359375 -0.078125q0.28125 0.40625 0.40625 0.953125l-0.40625 0.140625l-0.078125 -0.3125zm1.09375 1.421875q0.765625 -1.109375 1.015625 -2.234375l-0.828125 0l0 -0.515625l0.84375 0l0 -1.3125l0.53125 0q0.21875 0.015625 0.015625 0.15625l0 1.15625l0.765625 0l0 0.515625l-0.765625 0l0 0.875q0.5 0.296875 0.90625 0.65625l-0.296875 0.546875q-0.390625 -0.390625 -0.609375 -0.578125l0 3.015625l-0.546875 0l0 -3.0625q-0.15625 0.5625 -0.65625 1.25l-0.375 -0.46875zm3.21875 2.25l-0.453125 0l0 -1.203125l-0.578125 0l0 -0.4375l0.578125 0l0 -1.640625l1.28125 0l0 -0.328125l-1.890625 0l0 -0.4375l1.171875 0l0 -0.40625l-0.703125 0l0 -0.4375l0.703125 0l0 -0.359375l-0.984375 0l0 -0.4375l0.984375 0l0 -0.65625l0.4375 0q0.21875 0.03125 0.03125 0.15625l0 0.5l0.90625 0l0 -0.65625l0.4375 0q0.21875 0.03125 0.03125 0.15625l0 0.5l1.03125 0l0 0.4375l-1.03125 0l0 0.359375l0.734375 0l0 0.4375l-0.734375 0l0 0.40625l1.203125 0l0 0.4375l-1.859375 0l0 0.328125l1.3125 0l0 1.640625l0.5625 0l0 0.4375l-0.5625 0l0 0.765625q0 0.359375 -0.328125 0.359375l-0.53125 0l-0.046875 -0.515625l0.359375 0q0.078125 0 0.078125 -0.125l0 -0.484375l-2.140625 0l0 1.203125zm0.578125 -4.890625l0.90625 0l0 -0.359375l-0.90625 0l0 0.359375zm0 0.84375l0.90625 0l0 -0.40625l-0.90625 0l0 0.40625zm0.71875 1.578125l0.84375 0l0 -0.375l-0.84375 0l0 0.375zm-1.296875 0l0.828125 0l0 -0.375l-0.828125 0l0 0.375zm0 0.828125l0.828125 0l0 -0.390625l-0.828125 0l0 0.390625zm1.296875 0l0.84375 0l0 -0.390625l-0.84375 0l0 0.390625z" fill-rule="nonzero"/><path fill="#000000" d="m298.6414 106.632904q-0.234375 0.703125 -0.59375 1.359375l3.921875 0l0.65625 -0.234375l0.75 0.75q0.234375 0.296875 -0.234375 0.46875q-0.46875 2.34375 -1.40625 4.28125l1.40625 0.9375l-0.875 1.296875l-1.28125 -0.9375q-1.703125 2.453125 -4.875 4.046875l-1.34375 -1.0q3.515625 -1.46875 5.046875 -3.875q-1.46875 -0.9375 -2.875 -1.703125l0.703125 -1.046875q1.8125 0.8125 2.984375 1.515625q0.875 -1.8125 1.0625 -3.21875l-4.28125 0q-1.109375 2.0 -2.75 3.640625l-1.125 -0.765625q3.0 -3.109375 3.9375 -6.5625l1.40625 0.578125q0.46875 0.234375 -0.234375 0.46875zm6.609375 6.625q6.15625 -2.578125 9.328125 -7.265625l1.109375 0.9375q0.46875 0.359375 -0.40625 0.53125q-1.125 1.46875 -2.875 2.984375l0 7.96875l-1.34375 0l0 -6.859375q-2.0625 1.59375 -4.8125 2.875l-1.0 -1.171875zm12.253906 2.171875l2.453125 -0.0625q2.109375 -4.5625 3.234375 -9.3125l1.34375 0.46875q0.53125 0.34375 -0.125 0.53125q-1.109375 4.15625 -2.984375 8.203125l6.09375 -0.296875q-1.234375 -1.640625 -1.9375 -2.40625l1.171875 -0.8125q2.0 2.15625 3.8125 5.09375l-1.28125 0.875l-0.9375 -1.515625l-9.84375 0.75q-0.359375 0.59375 -0.53125 0l-0.46875 -1.515625zm17.101562 2.171875q5.6875 -1.46875 6.390625 -6.15625l-8.90625 0l0 -1.296875l8.96875 0l0.53125 -0.171875l1.046875 0.640625q0.359375 0.296875 -0.109375 0.53125q-0.9375 5.859375 -6.859375 7.625l-1.0625 -1.171875zm6.625 -9.5l-8.078125 0l0 -1.28125l8.078125 0l0 1.28125zm13.191406 1.40625q-1.125 6.390625 -7.328125 9.140625l-1.0625 -1.109375q5.75 -2.34375 6.921875 -8.09375l-4.6875 0q-1.34375 2.234375 -2.8125 3.578125l-1.171875 -0.765625q3.046875 -2.75 3.921875 -6.4375l1.34375 0.46875q0.359375 0.171875 -0.109375 0.34375q-0.234375 0.765625 -0.640625 1.53125l4.21875 0l0.515625 -0.296875l1.0625 1.0625q0.40625 0.40625 -0.171875 0.578125zm0.34375 -1.40625q-0.9375 -1.34375 -1.8125 -2.046875l0.765625 -0.640625q0.984375 0.875 1.875 2.046875l-0.828125 0.640625zm1.703125 -0.703125q-0.9375 -1.171875 -1.703125 -1.875l0.703125 -0.703125q0.875 0.828125 1.703125 1.875l-0.703125 0.703125zm9.199219 -0.53125l5.5625 0l0 3.046875l-1.171875 0l0 -1.921875l-9.90625 0l0 1.921875l-1.171875 0l0 -3.046875l5.34375 0l0 -1.40625l1.28125 0q0.59375 0.125 0.0625 0.46875l0 0.9375zm-4.75 2.578125l8.265625 0l0 1.125l-8.265625 0l0 -1.125zm-2.21875 2.640625l12.765625 0l0 1.109375l-4.28125 0l0 3.640625q0 0.46875 0.421875 0.46875l1.984375 0q0.59375 0 0.640625 -0.59375l0.125 -0.984375l1.34375 0.28125l-0.296875 1.46875q-0.234375 1.125 -1.578125 1.125l-2.921875 0q-1.0625 0 -1.0625 -1.0l0 -4.40625l-1.875 0l0 0.9375q0 3.703125 -4.859375 4.75l-0.46875 -1.34375q3.984375 -0.640625 3.984375 -3.453125l0 -0.890625l-3.921875 0l0 -1.109375zm23.90625 1.703125q0.984375 -1.53125 1.75 -3.75l1.109375 0.640625q0.421875 0.234375 -0.109375 0.359375q-0.875 2.15625 -2.109375 4.03125q1.28125 1.828125 1.9375 1.828125q0.515625 0 0.703125 -1.40625l1.109375 0.578125q-0.46875 2.34375 -1.296875 2.34375q-1.640625 0 -3.28125 -2.515625q-1.640625 1.8125 -3.796875 2.875l-0.703125 -1.109375q2.75 -1.359375 3.859375 -2.875q-0.8125 -2.0 -0.8125 -5.28125l0 -0.53125l-4.984375 0l0 2.0625l3.75 0l-0.125 3.984375q-0.046875 1.109375 -0.875 1.109375l-1.515625 0l-0.1875 -1.109375l1.0 0q0.46875 0 0.46875 -0.46875l0.125 -2.40625l-2.640625 0l0 1.703125q0 2.921875 -1.46875 4.796875l-1.0 -0.8125q1.296875 -1.59375 1.296875 -3.8125l0 -6.15625l6.15625 0l0 -2.515625l1.109375 0q0.46875 0.0625 0.0625 0.34375l0 2.171875l4.453125 0l0 1.109375l-4.453125 0l0 0.53125q0 2.75 0.46875 4.28125zm0.9375 -8.265625q0.9375 0.46875 1.640625 1.171875l-0.890625 0.875q-0.578125 -0.640625 -1.578125 -1.21875l0.828125 -0.828125z" fill-rule="nonzero"/><path fill="#000000" fill-opacity="0.0" d="m248.63411 49.11889l0 0c-50.601456 0 -91.62204 5.746269 -91.62204 12.834648l91.62204 0z" fill-rule="evenodd"/><path fill="#000000" fill-opacity="0.0" d="m248.63411 49.11889l0 0c-50.601456 0 -91.62204 5.746269 -91.62204 12.834648" fill-rule="evenodd"/><path stroke="#000000" stroke-width="1.0" stroke-linejoin="round" stroke-linecap="butt" d="m248.63411 49.11889l0 0c-50.601456 0 -91.62204 5.746269 -91.62204 12.834648" fill-rule="evenodd"/><path fill="#000000" fill-opacity="0.0" d="m248.63446 49.11889l0 0c50.60147 0 91.62204 5.6546097 91.62204 12.629925l-91.62204 0z" fill-rule="evenodd"/><path fill="#000000" fill-opacity="0.0" d="m248.63446 49.11889l0 0c50.60147 0 91.62204 5.6546097 91.62204 12.629925" fill-rule="evenodd"/><path stroke="#000000" stroke-width="1.0" stroke-linejoin="round" stroke-linecap="butt" d="m248.63446 49.11889l0 0c50.60147 0 91.62204 5.6546097 91.62204 12.629925" fill-rule="evenodd"/><path fill="#000000" fill-opacity="0.0" d="m209.0544 31.903263l79.18111 0l0 24.787403l-79.18111 0z" fill-rule="evenodd"/><path fill="#000000" d="m234.74846 45.083263l0.75 -0.0625q0.078125 0.53125 0.375 0.8125q0.296875 0.265625 0.71875 0.265625q0.515625 0 0.859375 -0.375q0.359375 -0.390625 0.359375 -1.015625q0 -0.609375 -0.34375 -0.953125q-0.34375 -0.34375 -0.890625 -0.34375q-0.328125 0 -0.609375 0.15625q-0.265625 0.140625 -0.421875 0.390625l-0.671875 -0.078125l0.5625 -2.953125l2.84375 0l0 0.671875l-2.28125 0l-0.3125 1.546875q0.515625 -0.359375 1.078125 -0.359375q0.75 0 1.265625 0.515625q0.515625 0.515625 0.515625 1.34375q0 0.765625 -0.453125 1.34375q-0.546875 0.6875 -1.5 0.6875q-0.78125 0 -1.28125 -0.4375q-0.484375 -0.4375 -0.5625 -1.15625z" fill-rule="nonzero"/><path fill="#000000" d="m244.99455 47.239513l0 -0.21875l-4.28125 0l0 0.28125l-0.625 0l0 -2.375l2.28125 0l0.21875 -0.6875l-1.09375 0l0 0.1875l-0.625 0l0 -1.9375l3.96875 0l0 1.90625l-0.625 0l0 -0.15625l-1.0 0l-0.21875 0.6875l2.625 0l0 2.3125l-0.625 0zm1.21875 -5.78125l0 1.53125l-0.625 0l0 -0.9375l-5.5 0l0 0.9375l-0.625 0l0 -1.53125l1.59375 0q-0.15625 -0.375 -0.5625 -0.78125l0.53125 -0.375q0.40625 0.34375 0.65625 0.8125l-0.53125 0.34375l2.90625 0q0.375 -0.53125 0.59375 -1.34375l0.71875 0.25q0.1875 0.09375 -0.09375 0.1875q-0.25 0.53125 -0.5625 0.90625l1.5 0zm-3.4375 -1.3125q0.34375 0.25 0.6875 0.8125l-0.5625 0.34375q-0.3125 -0.5 -0.625 -0.8125l0.5 -0.34375zm1.4375 2.9375l-2.71875 0l0 0.5625l2.71875 0l0 -0.5625zm-3.5 3.34375l4.28125 0l0 -0.90625l-4.28125 0l0 0.90625zm6.84375 -0.0625q1.75 -0.40625 2.75 -1.34375l-2.75 0l0 -0.5l3.03125 0l0 -0.46875l-2.03125 0l0 -0.5l2.03125 0l0 -0.5l-2.375 0l0 -0.5l1.625 0l-0.34375 -0.59375l-1.9375 0l0 -0.5l1.46875 0q-0.21875 -0.3125 -0.5625 -0.59375l0.46875 -0.375q0.375 0.21875 0.71875 0.6875l-0.34375 0.28125l0.65625 0l0 -1.3125l0.59375 0q0.25 0.03125 0.03125 0.1875l0 1.125l0.59375 0l0 -1.3125l0.59375 0q0.25 0.03125 0.03125 0.1875l0 1.125l0.75 0l-0.34375 -0.25q0.3125 -0.4375 0.5625 -0.8125l0.46875 0.3125q0.21875 0.125 -0.03125 0.15625q-0.15625 0.28125 -0.4375 0.59375l1.5 0l0 0.5l-1.96875 0l-0.34375 0.59375l1.71875 0l0 0.5l-2.46875 0l0 0.5l2.09375 0l0 0.5l-2.09375 0l0 0.46875l3.09375 0l0 0.5l-2.71875 0q1.09375 0.96875 2.75 1.3125l-0.25 0.65625q-1.71875 -0.4375 -2.875 -1.5l0 1.75l-0.625 0l0 -1.6875q-1.09375 0.96875 -2.78125 1.4375l-0.25 -0.625zm2.875 -3.8125l0.96875 0l0.3125 -0.59375l-1.625 0l0.34375 0.59375zm6.7187653 4.3125l-0.71875 0l0 -6.03125l4.90625 0l0 5.90625l-0.71875 0l0 -0.4375l-3.46875 0l0 0.5625zm3.46875 -3.65625l0 -1.78125l-3.46875 0l0 1.78125l3.46875 0zm0 2.5l0 -1.90625l-3.46875 0l0 1.90625l3.46875 0z" fill-rule="nonzero"/><path fill="#000000" fill-opacity="0.0" d="m342.08145 84.35406l354.9606 0" fill-rule="evenodd"/><path stroke="#0000ff" stroke-width="8.0" stroke-linejoin="round" stroke-linecap="butt" d="m342.08145 84.35406l354.9606 0" fill-rule="evenodd"/><path fill="#000000" fill-opacity="0.0" d="m208.29922 40.16368l0 50.960632" fill-rule="evenodd"/><path stroke="#000000" stroke-width="4.0" stroke-linejoin="round" stroke-linecap="butt" d="m208.29922 40.16368l0 50.960632" fill-rule="evenodd"/><path fill="#000000" fill-opacity="0.0" d="m168.71338 88.45915l79.18111 0l0 58.740158l-79.18111 0z" fill-rule="evenodd"/><path fill="#ff0000" d="m197.88205 99.23415q-0.015625 0.46875 -0.125 1.125q0.1875 0.546875 0.78125 0.984375l0 -3.0625l-1.75 0l0 -0.53125l2.0 0q0.5 -0.84375 0.65625 -1.53125l0.609375 0.21875q0.1875 0.09375 -0.0625 0.171875q-0.328125 0.625 -0.65625 1.140625l1.390625 0l0 0.53125l-1.640625 0l0 1.25l1.3125 0l0 0.515625l-1.3125 0l0 1.53125q0.28125 0.140625 0.875 0.140625l0.96875 0l-0.09375 0.53125l-1.03125 0q-1.453125 0 -2.21875 -1.265625q-0.296875 0.875 -0.8125 1.453125l-0.4375 -0.4375q0.984375 -1.078125 1.0 -3.046875l0.609375 0.109375q0.078125 0.09375 -0.0625 0.171875zm-3.140625 -1.390625q0.9375 -0.71875 1.390625 -1.515625l0.5 0.359375q0.109375 0.171875 -0.078125 0.140625q-0.46875 0.6875 -1.453125 1.46875l-0.359375 -0.453125zm0.9375 1.765625q-0.390625 0.4375 -0.765625 0.765625l-0.328125 -0.484375q1.03125 -0.84375 1.578125 -2.078125l0.5 0.296875q0.109375 0.109375 -0.09375 0.140625q-0.078125 0.1875 -0.34375 0.59375l0 3.640625l-0.546875 0l0 -2.875zm2.046875 -3.25q0.4375 0.359375 0.6875 1.015625l-0.53125 0.265625q-0.15625 -0.5625 -0.625 -1.0l0.46875 -0.28125zm4.1875 5.3125q1.53125 -0.359375 2.40625 -1.1875l-2.40625 0l0 -0.4375l2.640625 0l0 -0.40625l-1.765625 0l0 -0.4375l1.765625 0l0 -0.4375l-2.078125 0l0 -0.4375l1.421875 0l-0.296875 -0.515625l-1.6875 0l0 -0.4375l1.28125 0q-0.1875 -0.28125 -0.5 -0.515625l0.421875 -0.328125q0.328125 0.1875 0.625 0.59375l-0.296875 0.25l0.5625 0l0 -1.15625l0.53125 0q0.21875 0.03125 0.015625 0.171875l0 0.984375l0.53125 0l0 -1.15625l0.515625 0q0.21875 0.03125 0.03125 0.171875l0 0.984375l0.65625 0l-0.3125 -0.21875q0.28125 -0.390625 0.5 -0.71875l0.40625 0.28125q0.1875 0.109375 -0.03125 0.140625q-0.125 0.234375 -0.375 0.515625l1.3125 0l0 0.4375l-1.71875 0l-0.3125 0.515625l1.515625 0l0 0.4375l-2.171875 0l0 0.4375l1.84375 0l0 0.4375l-1.84375 0l0 0.40625l2.71875 0l0 0.4375l-2.390625 0q0.96875 0.859375 2.40625 1.15625l-0.21875 0.578125q-1.5 -0.390625 -2.515625 -1.3125l0 1.53125l-0.546875 0l0 -1.484375q-0.953125 0.84375 -2.421875 1.265625l-0.21875 -0.546875zm2.515625 -3.34375l0.84375 0l0.265625 -0.515625l-1.421875 0l0.3125 0.515625zm6.671875 3.453125q-0.71875 0.46875 -1.921875 0.765625l-0.265625 -0.515625q1.109375 -0.234375 1.96875 -0.75l0.375 0.390625q0 0.109375 -0.15625 0.109375zm-1.015625 -0.3125l-0.546875 0l0 -3.390625l4.453125 0l0 3.3125l-0.546875 0l0 -0.15625l-3.359375 0l0 0.234375zm2.65625 -0.1875q1.0 0.5 1.96875 0.6875l-0.25 0.515625q-1.046875 -0.21875 -2.15625 -0.875l0.4375 -0.328125zm0.703125 -2.265625l0 -0.5l-3.359375 0l0 0.5l3.359375 0zm0 0.4375l-3.359375 0l0 0.46875l3.359375 0l0 -0.46875zm0 1.34375l0 -0.4375l-3.359375 0l0 0.4375l3.359375 0zm0.109375 -4.484375l0 1.4375l-3.578125 0l0 -1.4375l3.578125 0zm-0.46875 1.0l0 -0.5625l-2.640625 0l0 0.5625l2.640625 0zm4.90625 4.078125q1.0 -0.4375 1.65625 -1.03125l0 -0.875l-1.65625 0l0 -0.4375l1.65625 0l0 -0.53125l-1.203125 0l0 -0.4375l1.203125 0l0 -0.5625l-1.53125 0l0 -0.4375l0.96875 0q-0.171875 -0.25 -0.421875 -0.46875l0.359375 -0.328125q0.25 0.1875 0.546875 0.546875l-0.265625 0.25l0.734375 0l0.375 -0.9375l0.546875 0.1875q0.109375 0.109375 -0.078125 0.140625l-0.359375 0.609375l1.203125 0l0 0.4375l-1.609375 0l0 0.5625l1.28125 0l0 0.4375l-1.28125 0l0 0.53125l1.8125 0l0 0.4375l-1.8125 0l0 0.15625q0.1875 0.390625 0.5 0.71875q0.296875 -0.28125 0.5625 -0.75l0.46875 0.328125q0.140625 0.140625 -0.078125 0.109375q-0.28125 0.328125 -0.625 0.65625q0.296875 0.328125 1.03125 0.828125l-0.375 0.46875q-0.875 -0.609375 -1.484375 -1.53125l0 1.53125q0 0.40625 -0.296875 0.40625l-0.515625 0l-0.09375 -0.4375l0.328125 0q0.109375 0 0.109375 -0.109375l0 -0.90625q-0.453125 0.46875 -1.21875 0.875q0 0.21875 -0.109375 0.09375l-0.328125 -0.53125zm0.875 -0.765625q-0.171875 -0.328125 -0.53125 -0.65625l0.421875 -0.296875q0.34375 0.265625 0.5625 0.65625l-0.453125 0.296875zm-1.671875 -1.796875q0.46875 0.375 0.84375 0.765625l-0.328125 0.546875q-0.265625 -0.359375 -0.515625 -0.609375l0 2.9375l-0.546875 0l0 -2.984375q-0.296875 0.765625 -0.71875 1.25l-0.40625 -0.46875q0.765625 -0.984375 1.0625 -2.234375l-0.8125 0l0 -0.515625l0.875 0l0 -1.296875l0.515625 0q0.21875 0.03125 0.03125 0.171875l0 1.125l0.6875 0l0 0.515625l-0.6875 0l0 0.796875z" fill-rule="nonzero"/><path fill="#000000" d="m194.64767 110.570404l0 -1.125l3.0 0l0 -1.921875l-2.46875 0.171875l-0.296875 -1.0625q3.28125 -0.171875 5.8125 -0.703125l0.578125 1.0q0.0625 0.40625 -0.34375 0.171875l-2.109375 0.234375l0 2.109375l3.15625 0l0 1.125l-3.15625 0l0 1.28125q1.8125 0.828125 2.921875 2.0l-0.875 1.109375q-0.875 -1.0 -2.046875 -1.8125l0 5.5625l-1.171875 0l0 -5.6875q-1.0 1.765625 -2.640625 3.109375l-0.703125 -1.234375q2.34375 -1.75 3.21875 -4.328125l-2.875 0zm12.015625 -4.453125q0.46875 0.046875 0.0625 0.34375l0 11.203125q0 0.9375 -0.9375 0.9375l-1.34375 0l-0.234375 -1.125l1.171875 0q0.171875 0 0.171875 -0.171875l0 -11.1875l1.109375 0zm-2.984375 1.453125q0.46875 0.0625 0.0625 0.359375l0 7.84375l-1.171875 0l0 -8.203125l1.109375 0zm16.75 6.328125l-3.796875 0l0 4.46875l-1.171875 0l0 -4.46875l-3.515625 0q-0.125 3.046875 -1.828125 4.875l-0.9375 -0.9375q1.59375 -1.765625 1.59375 -4.109375l0 -7.5l10.828125 0l0 11.1875q0 0.953125 -0.9375 0.953125l-1.640625 0l-0.28125 -1.296875l1.453125 0q0.234375 0 0.234375 -0.234375l0 -2.9375zm-8.484375 -3.28125l0 2.171875l3.515625 0l0 -2.171875l-3.515625 0zm0 -3.28125l0 2.171875l3.515625 0l0 -2.171875l-3.515625 0zm4.6875 3.28125l0 2.171875l3.796875 0l0 -2.171875l-3.796875 0zm0 -3.28125l0 2.171875l3.796875 0l0 -2.171875l-3.796875 0z" fill-rule="nonzero"/><path fill="#000000" d="m201.44455 124.12353q0.359375 0.640625 1.0 1.34375l1.703125 -1.75l1.0 0.75q0.171875 0.296875 -0.234375 0.1875l-1.828125 1.578125l0.53125 0.53125l2.046875 -1.765625l0.9375 0.765625q0.234375 0.296875 -0.234375 0.171875l-2.046875 1.40625q1.296875 1.1093826 3.171875 1.6406326l-0.46875 1.34375q-2.109375 -0.75 -3.8125 -2.3906326l0 0.8125076l-4.75 0l0 -0.703125q-1.640625 1.578125 -3.8125 2.46875l-0.640625 -1.234375q2.0 -0.640625 3.28125 -1.8125076q-0.8125 -0.65625 -1.75 -1.171875l0.875 -1.125q1.0 0.65625 1.875 1.40625q0.875 -0.8125 1.640625 -1.984375l-3.453125 0l0 -1.109375l4.03125 0l0.234375 -0.46875l1.0 0.640625q0.359375 0.234375 -0.171875 0.296875l-0.125 0.171875zm1.46875 3.515625q-1.0 -0.9375 -1.984375 -2.515625q-0.703125 1.40625 -2.0625 2.515625l4.046875 0zm-0.640625 5.6250076l-2.984375 0l0.46875 1.703125l1.984375 0l0.53125 -1.703125zm2.453125 -3.578125l0 3.578125l-1.171875 0l-0.640625 1.703125l3.875 0l0 1.109375l-11.953125 0l0 -1.109375l3.75 0l-0.53125 -1.703125l-1.109375 0l0 -3.578125l7.78125 0zm-1.171875 2.640625l0 -1.703125l-5.4375 0l0 1.703125l5.4375 0zm6.5625 1.578125q-0.109375 -1.46875 -0.46875 -2.75l1.0 -0.359375q0.40625 1.125 0.53125 2.765625l-1.0625 0.34375zm4.40625 -2.6875q-0.1875 1.21875 -0.46875 2.515625l-1.0 -0.234375q0.171875 -0.828125 0.46875 -2.75l1.109375 0.109375q0.171875 0.171875 -0.109375 0.359375zm-5.109375 3.984375l2.171875 -0.46875l0 -4.640625l-2.109375 0l0 -0.9375l2.109375 0l0 -1.5781326l-0.9375 0q-0.40625 0.5312576 -0.875 1.0000076l-0.703125 -1.1093826q1.703125 -1.640625 2.578125 -4.40625l1.171875 0.359375q0.234375 0.234375 -0.171875 0.296875l-0.0625 0.109375q1.40625 0.640625 2.578125 1.9375l-0.59375 1.046875q-0.703125 -0.875 -2.28125 -2.109375q-0.296875 0.703125 -1.046875 1.9375l2.75 0l0 0.9375l-1.40625 0l0 1.5781326l2.109375 0l0 0.9375l-2.109375 0l0 4.40625l1.640625 -0.421875l0.171875 1.0l-4.390625 1.171875q-0.125 0.421875 -0.234375 0.1875l-0.359375 -1.234375zm10.671875 -3.109375q1.28125 1.703125 2.8125 2.6875l-0.703125 1.0q-1.9375 -1.28125 -3.109375 -3.578125l0 3.53125q0 0.8125 -0.703125 0.8125l-1.046875 0l-0.1875 -1.109375l0.703125 0q0.234375 0 0.234375 -0.234375l0 -1.828125q-1.171875 0.890625 -2.515625 1.828125q-0.0625 0.703125 -0.296875 0.234375l-0.578125 -1.234375q1.984375 -0.9375 3.390625 -2.046875l0 -3.34375l-3.046875 0l0 -1.1093826l4.6875 0l0 -1.234375l-3.921875 0l0 -0.9375l3.921875 0l0 -1.171875l-4.09375 0l0 -0.9375l5.09375 0l0 4.28125l1.703125 0l0 1.1093826l-3.34375 0l0 1.40625q0 0.109375 0.53125 1.0l1.703125 -1.703125l0.8125 0.8125q0.234375 0.234375 -0.234375 0.1875l-1.8125 1.578125zm-3.6875 0.296875q-0.296875 -0.9375 -1.0625 -2.0625l0.9375 -0.46875q0.9375 1.125 1.171875 2.0l-1.046875 0.53125z" fill-rule="nonzero"/><path fill="#000000" fill-opacity="0.0" d="m210.38058 74.73753l486.67715 0" fill-rule="evenodd"/><path stroke="#ff0000" stroke-width="8.0" stroke-linejoin="round" stroke-linecap="butt" d="m210.38058 74.73753l486.67715 0" fill-rule="evenodd"/><path fill="#000000" fill-opacity="0.0" d="m342.59174 61.135212l0 0c7.219055 -5.92614 90.01224 -10.4109955 186.38287 -10.096252c96.37073 0.31474686 170.9956 5.313732 167.99469 11.253647l-177.39447 -0.33985138z" fill-rule="evenodd"/><path fill="#000000" fill-opacity="0.0" d="m342.59174 61.135212l0 0c7.219055 -5.92614 90.01224 -10.4109955 186.38287 -10.096252c96.37073 0.31474686 170.9956 5.313732 167.99469 11.253647" fill-rule="evenodd"/><path stroke="#ff9900" stroke-width="3.0" stroke-linejoin="round" stroke-linecap="butt" d="m342.59174 61.135212l0 0c7.219055 -5.92614 90.01224 -10.4109955 186.38287 -10.096252c96.37073 0.31474686 170.9956 5.313732 167.99469 11.253647" fill-rule="evenodd"/><path fill="#ff9900" d="m413.98785 29.477428l211.1496 0l0 29.637794l-211.1496 0z" fill-rule="evenodd"/><path fill="#000000" d="m467.8361 45.46618q0.984375 0.9375 1.59375 1.640625l-0.9375 0.84375q-1.78125 -2.109375 -4.078125 -3.796875l0.65625 -0.84375q0.84375 0.515625 1.875 1.453125q1.40625 -1.40625 2.859375 -3.46875l-7.359375 0.328125l-0.1875 -1.171875l8.203125 -0.1875l0.46875 -0.140625l0.703125 0.75q0.234375 0.375 -0.1875 0.328125q-1.171875 1.546875 -3.609375 4.265625zm5.25 -0.890625q4.921875 -2.0625 7.453125 -5.8125l0.890625 0.75q0.375 0.28125 -0.328125 0.421875q-0.890625 1.171875 -2.296875 2.390625l0 6.375l-1.078125 0l0 -5.484375q-1.640625 1.265625 -3.84375 2.296875l-0.796875 -0.9375zm15.46875 -2.8125l4.359375 0l0 1.03125l-4.3125 0l0 0.84375q0 3.46875 -3.0 5.25l-0.984375 -0.75q2.90625 -1.5 2.90625 -4.5l0 -0.84375l-4.640625 0l0 -1.03125l4.59375 0l0 -2.8125l0.9375 0q0.515625 0.046875 0.140625 0.375l0 2.4375zm11.859375 4.03125q-0.984375 1.359375 -2.953125 2.625l-0.515625 -1.125q2.015625 -0.890625 3.421875 -2.8125l-3.375 0l0 -0.890625l3.421875 0l0 -1.40625l-1.40625 0l0 0.421875l-0.9375 0l0 -3.890625l5.53125 0l0 3.84375l-0.9375 0l0 -0.375l-1.3125 0l0 1.40625l3.421875 0l0 0.890625l-3.328125 0q1.3125 1.828125 3.609375 2.765625l-0.328125 1.078125q-1.96875 -0.75 -3.375 -2.578125l0 3.28125l-0.9375 0l0 -3.234375zm-3.046875 -6.984375q-0.140625 1.03125 -0.75 2.4375l0.140625 0.09375q0.1875 0.1875 -0.140625 0.234375l0 7.453125l-0.9375 0l0 -5.953125q-0.375 0.609375 -0.890625 1.125l-0.609375 -0.9375q1.6875 -1.640625 2.296875 -5.0625l1.03125 0.375q0.1875 0.1875 -0.140625 0.234375zm1.640625 0.796875l0 1.6875l3.65625 0l0 -1.6875l-3.65625 0zm10.3125 1.546875q2.15625 -0.796875 3.1405945 -2.859375l1.125 0.09375q0.140625 0.09375 -0.09375 0.234375q1.21875 1.453125 3.5625 2.203125l-0.328125 1.03125q-2.625 -0.890625 -3.75 -2.578125q-0.890625 1.78125 -3.2343445 2.859375l-0.421875 -0.984375zm-0.46875 4.171875q-0.09375 -1.453125 -0.890625 -2.71875l0.65625 -2.953125l-1.125 0l0 9.375l-0.9375 0l0 -10.265625l2.390625 0l0.1875 -0.140625l0.65625 0.65625l-0.1875 0.1875l-0.796875 3.046875q0.984375 1.453125 1.03125 2.8125q0.046875 1.875 -1.078125 1.875l-0.796875 0l-0.09375 -1.03125l0.5625 0q0.46875 0 0.421875 -0.84375zm4.4530945 1.171875q-0.84375 2.0625 -4.0312195 2.578125l-0.28125 -1.03125q3.0468445 -0.46875 3.6562195 -2.296875l-2.2499695 0l0 -2.671875l2.3905945 0l0 -0.796875l-1.4999695 0l0 -0.890625l3.9374695 0l0 0.890625l-1.640625 0l0 0.796875l2.4375 0l0 2.671875l-2.25 0q0.84375 1.40625 3.328125 2.109375l-0.328125 1.03125q-2.296875 -0.5625 -3.46875 -2.390625zm0.28125 -1.5l1.640625 0l0 -1.171875l-1.640625 0l0 1.171875zm-2.3905945 0l1.5937195 0l0 -1.171875l-1.5937195 0l0 1.171875zm10.7812195 -6.515625l0 0.890625l-3.234375 0l0 -0.890625l3.234375 0zm0.609375 1.6875l0 0.890625l-4.3125 0l0 -0.890625l4.3125 0zm-3.84375 1.6875l3.234375 0l0 0.890625l-3.234375 0l0 -0.890625zm0 1.640625l3.234375 0l0 0.890625l-3.234375 0l0 -0.890625zm0.84375 2.484375l0 1.59375l1.59375 0l0 -1.59375l-1.59375 0zm1.59375 2.484375l-1.59375 0l0 0.5625l-0.9375 0l0 -3.9375l3.46875 0l0 3.796875l-0.9375 0l0 -0.421875zm1.78125 -9.375l5.578125 0l0 0.890625l-1.96875 0l0 3.328125l1.921875 0l0 0.890625l-1.921875 0l0 3.515625l2.390625 0l0 0.890625l-6.328125 0l0 -0.890625l0.890625 0l0 -5.8125l0.890625 0q0.375 0.046875 0.046875 0.28125l0 5.53125l1.171875 0l0 -7.734375l-2.671875 0l0 -0.890625zm7.6875 3.328125l0 -0.890625l2.390625 0l0 -1.546875l-1.96875 0.140625l-0.234375 -0.84375q2.625 -0.140625 4.640625 -0.5625l0.46875 0.796875q0.046875 0.328125 -0.28125 0.140625l-1.6875 0.1875l0 1.6875l2.53125 0l0 0.890625l-2.53125 0l0 1.03125q1.453125 0.65625 2.34375 1.59375l-0.703125 0.890625q-0.703125 -0.796875 -1.640625 -1.453125l0 4.453125l-0.9375 0l0 -4.546875q-0.796875 1.40625 -2.109375 2.484375l-0.5625 -0.984375q1.875 -1.40625 2.578125 -3.46875l-2.296875 0zm9.609375 -3.5625q0.375 0.046875 0.046875 0.28125l0 8.953125q0 0.75 -0.75 0.75l-1.078125 0l-0.1875 -0.890625l0.9375 0q0.140625 0 0.140625 -0.140625l0 -8.953125l0.890625 0zm-2.390625 1.171875q0.375 0.046875 0.046875 0.28125l0 6.28125l-0.9375 0l0 -6.5625l0.890625 0zm13.40625 5.0625l-3.046875 0l0 3.5625l-0.9375 0l0 -3.5625l-2.8125 0q-0.09375 2.4375 -1.453125 3.890625l-0.75 -0.75q1.265625 -1.40625 1.265625 -3.28125l0 -6.0l8.671875 0l0 8.953125q0 0.75 -0.75 0.75l-1.3125 0l-0.234375 -1.03125l1.171875 0q0.1875 0 0.1875 -0.1875l0 -2.34375zm-6.796875 -2.625l0 1.734375l2.8125 0l0 -1.734375l-2.8125 0zm0 -2.625l0 1.734375l2.8125 0l0 -1.734375l-2.8125 0zm3.75 2.625l0 1.734375l3.046875 0l0 -1.734375l-3.046875 0zm0 -2.625l0 1.734375l3.046875 0l0 -1.734375l-3.046875 0zm6.140625 -0.65625l10.3125 0l0 1.03125l-1.453125 0l0 7.6875q0 0.890625 -0.84375 0.890625l-1.59375 0l-0.1875 -1.03125l1.359375 0q0.1875 0 0.1875 -0.1875l0 -7.359375l-7.78125 0l0 -1.03125zm6.1875 7.21875l-1.078125 0l0 -0.421875l-2.578125 0l0 0.890625l-1.078125 0l0 -5.015625l4.734375 0l0 4.546875zm-1.078125 -3.65625l-2.578125 0l0 2.34375l2.578125 0l0 -2.34375zm11.0625 -3.46875q0.890625 0.984375 1.59375 2.15625l-0.890625 0.515625l-0.375 -0.5625l-4.171875 0.421875q-0.046875 0.328125 -0.234375 0.140625l-0.28125 -1.125l1.265625 0l0.9375 -2.53125l1.171875 0.28125q0.1875 0.1875 -0.140625 0.234375l-1.125 1.96875l2.203125 -0.140625l-0.703125 -0.9375l0.75 -0.421875zm-2.484375 3.890625l0 0.796875l2.203125 0l0 -0.796875l-2.203125 0zm0 1.6875l0 0.796875l2.203125 0l0 -0.796875l-2.203125 0zm3.140625 -2.578125l0 5.90625q0 0.75 -0.75 0.75l-0.796875 0l-0.140625 -0.890625l0.609375 0q0.140625 0 0.140625 -0.140625l0 -1.359375l-2.203125 0l0 2.4375l-0.9375 0l0 -6.703125l4.078125 0zm2.0625 1.828125q0.375 0.046875 0.046875 0.28125l0 1.21875l2.671875 -0.984375l0.46875 0.796875q0.046875 0.328125 -0.28125 0.140625l-2.859375 0.75l0 1.3125q0 0.328125 0.28125 0.328125l1.875 0q0.328125 0 0.375 -0.328125l0.140625 -0.796875l0.984375 0.1875l-0.1875 1.078125q-0.140625 0.75 -0.796875 0.75l-2.765625 0q-0.84375 0 -0.84375 -0.796875l0 -3.9375l0.890625 0zm3.0 -3.703125q0.046875 0.328125 -0.28125 0.140625l-2.671875 0.75l0 1.125q0 0.328125 0.28125 0.328125l1.875 0q0.28125 0 0.328125 -0.375l0.09375 -0.84375l0.984375 0.1875l-0.09375 1.03125q-0.09375 0.890625 -0.890625 0.890625l-2.671875 0q-0.84375 0 -0.84375 -0.796875l0 -4.171875l0.890625 0q0.375 0.046875 0.046875 0.28125l0 1.640625l2.390625 -1.03125l0.5625 0.84375z" fill-rule="nonzero"/></g></svg>