<svg xmlns="http://www.w3.org/2000/svg" width="99.286" height="91.8" viewBox="0 0 99.286 91.8">
  <g id="グループ_543" data-name="グループ 543" transform="translate(-499.967 -64.131)">
    <g id="グループ_544" data-name="グループ 544">
      <g id="グループ_538" data-name="グループ 538" transform="translate(499.967 136.753)">
        <g id="グループ_532" data-name="グループ 532" transform="translate(0 0.35)">
          <path id="パス_116" data-name="パス 116" d="M511.677,254.885l-4.989-6.8h-3.212v6.8h-3.51V236.058h7.021c4.025,0,6.729,2.411,6.729,6a5.683,5.683,0,0,1-3.264,5.263l-.227.112,5.359,7.452Zm-8.2-9.841h3.511a2.976,2.976,0,1,0,0-5.943h-3.511Z" transform="translate(-499.967 -236.058)" fill="white"/>
        </g>
        <g id="グループ_533" data-name="グループ 533" transform="translate(18.671 0.35)">
          <rect id="長方形_1845" data-name="長方形 1845" width="3.51" height="18.827" fill="white"/>
        </g>
        <g id="グループ_534" data-name="グループ 534" transform="translate(26.372 0.35)">
          <path id="パス_117" data-name="パス 117" d="M568.257,254.885v-15.7H562.1v-3.13h15.851v3.13h-6.185v15.7Z" transform="translate(-562.101 -236.058)" fill="white"/>
        </g>
        <g id="グループ_535" data-name="グループ 535" transform="translate(41.772 0)">
          <path id="パス_118" data-name="パス 118" d="M612.465,254.41l-1.08-2.509h-8.16l-1.08,2.509h-3.761l8.418-19.177h1.033l8.391,19.177Zm-8.013-5.319h5.705l-2.853-7.28Z" transform="translate(-598.385 -235.233)" fill="white"/>
        </g>
        <g id="グループ_536" data-name="グループ 536" transform="translate(62.196 0.35)">
          <path id="パス_119" data-name="パス 119" d="M658.215,254.885l-4.989-6.8h-3.212v6.8h-3.51V236.058h7.021c4.025,0,6.729,2.411,6.729,6a5.683,5.683,0,0,1-3.264,5.263l-.227.112,5.359,7.452Zm-8.2-9.841h3.511a2.976,2.976,0,1,0,0-5.943h-3.511Z" transform="translate(-646.505 -236.058)" fill="white"/>
        </g>
        <g id="グループ_537" data-name="グループ 537" transform="translate(80.867 0)">
          <path id="パス_120" data-name="パス 120" d="M705.4,254.41v-10.7l-5.16,6.5h-1.077l-5.16-6.5v10.7h-3.51V235.233h.964l8.245,10.579,8.245-10.579h.965V254.41Z" transform="translate(-690.493 -235.233)" fill="white"/>
        </g>
      </g>
      <g id="グループ_539" data-name="グループ 539" transform="translate(538.779 79.383)">
        <path id="パス_121" data-name="パス 121" d="M591.412,100.065l6.847,3.065v11.716l-6.847,6Z" transform="translate(-591.412 -100.065)" fill="#7c1027"/>
      </g>
      <g id="グループ_540" data-name="グループ 540" transform="translate(530.518 64.131)">
        <path id="パス_122" data-name="パス 122" d="M598.225,93.065l7.5-6.574L571.944,71.371v-7.24L617.9,84.7l-19.675,17.219Z" transform="translate(-571.944 -64.131)" fill="#b12025"/>
      </g>
      <g id="グループ_541" data-name="グループ 541" transform="translate(549.43 103.563)">
        <path id="パス_123" data-name="パス 123" d="M616.5,161.825l5.473-4.789,18.652,8.35v7.24Z" transform="translate(-616.503 -157.036)" fill="#7c1027"/>
      </g>
      <g id="グループ_542" data-name="グループ 542" transform="translate(522.744 92.463)">
        <path id="パス_124" data-name="パス 124" d="M553.631,156.947l29.755-26.065v8.892l-29.755,26.064Z" transform="translate(-553.631 -130.882)" fill="#ba8284"/>
      </g>
    </g>
  </g>
</svg>
